<svg xmlns="http://www.w3.org/2000/svg" version="1.1" xmlns:xlink="http://www.w3.org/1999/xlink" xmlns:svgjs="http://svgjs.dev/svgjs" width="1000" height="1000" viewBox="0 0 1000 1000"><rect width="1000" height="1000" fill="#ffffff"></rect><g transform="matrix(0.7,0,0,0.7,149.57575757575756,252.54999999999998)"><svg viewBox="0 0 396 280" data-background-color="#ffffff" preserveAspectRatio="xMidYMid meet" height="707" width="1000" xmlns="http://www.w3.org/2000/svg" xmlns:xlink="http://www.w3.org/1999/xlink"><g id="tight-bounds" transform="matrix(1,0,0,1,0.2400000000000091,0)"><svg viewBox="0 0 395.52 280" height="280" width="395.52"><g><svg viewBox="0 0 395.52 280" height="280" width="395.52"><g><svg viewBox="0 0 395.52 280" height="280" width="395.52"><g><svg viewBox="0 0 395.52 280" height="280" width="395.52"><g><svg viewBox="0 0 395.52 280" height="280" width="395.52"><g transform="matrix(1,0,0,1,95.65203525306555,57.50420886156945)"><svg viewBox="0 0 204.21592949386888 164.9915822768611" height="164.9915822768611" width="204.21592949386888"><g><circle r="82" cx="102.10796474693444" cy="82.49579113843055" fill="#000000" data-fill-palette-color="accent"></circle><svg xmlns="http://www.w3.org/2000/svg" xmlns:xlink="http://www.w3.org/1999/xlink" version="1.1" x="34.95935926186291" y="34.959359261862915" viewBox="5 13.388999938964844 90.00093078613281 73.22200012207031" enable-background="new 0 0 100 100" xml:space="preserve" height="95.07286375313527" width="134.29721097014308" class="icon-o-0" data-fill-palette-color="quaternary" id="o-0"><path d="M94.627 36.271l-8.825-21.942c-0.22-0.544-0.747-0.902-1.335-0.902H59.889c-0.084-0.014-0.167-0.038-0.253-0.038H40.363h-0.04-23.59c-0.563 0-1.074 0.329-1.308 0.841L5.38 36.263C5.146 36.519 5 36.855 5 37.229c0 0.478 0.232 0.9 0.592 1.161l43.082 47.44c0.029 0.057 0.053 0.116 0.089 0.169 0.27 0.384 0.709 0.612 1.178 0.612h0.04 0.039c0 0 0 0 0.001 0 0 0 0.001 0 0.003 0 0.117-0.001 0.23-0.019 0.342-0.046 0.033-0.008 0.063-0.021 0.096-0.031 0.085-0.028 0.165-0.063 0.243-0.104 0.02-0.011 0.039-0.014 0.058-0.024 0.012-0.007 0.018-0.018 0.028-0.024 0.106-0.069 0.208-0.146 0.294-0.24l43.543-47.946c0.382-0.421 0.48-1.028 0.25-1.549C94.813 36.506 94.727 36.381 94.627 36.271zM41.385 16.264h17.256l6.793 19.486H34.591L41.385 16.264zM17.659 16.264H38.3L31.506 35.75H8.772L17.659 16.264zM9.725 38.667h21.854l14.537 40.071L9.725 38.667zM49.979 80.85L34.677 38.667h30.605L49.979 80.85zM53.793 78.882l14.589-40.215h21.933L53.793 78.882zM68.506 35.792l-6.794-19.49h21.783l7.84 19.49H68.506z" fill="#ffffff" data-fill-palette-color="quaternary"></path></svg></g></svg></g><path d="M79.616 108.14L61.594 103.214 62.284 100.689 80.306 105.615ZM87.081 87.966L86.29 90.002C85.525 90.132 84.666 90.285 83.713 90.461 82.752 90.64 81.751 90.845 80.711 91.075 79.664 91.302 78.6 91.549 77.517 91.813 76.427 92.076 75.371 92.347 74.348 92.628 73.328 92.903 72.357 93.182 71.436 93.465 70.518 93.743 69.699 94.01 68.98 94.269V94.269L82.582 99.551 81.653 101.943 64.237 95.18 64.99 93.24C66.129 92.775 67.429 92.311 68.892 91.847 70.354 91.383 71.848 90.943 73.374 90.525 74.893 90.106 76.374 89.726 77.817 89.388 79.261 89.049 80.531 88.787 81.627 88.601V88.601L68.736 83.595 69.664 81.203ZM79.014 64.906L80.43 62.487C81.788 64.07 83.037 65.554 84.177 66.938 85.314 68.328 86.385 69.659 87.391 70.933 88.39 72.203 89.339 73.439 90.235 74.641 91.126 75.839 91.998 77.042 92.851 78.25V78.25L91.611 80.367C90.14 80.214 88.665 80.042 87.184 79.852 85.694 79.664 84.148 79.448 82.548 79.203 80.938 78.961 79.249 78.685 77.481 78.374 75.709 78.069 73.804 77.706 71.765 77.284V77.284L73.223 74.794C76.161 75.392 79.001 75.948 81.741 76.462 84.478 76.982 87.089 77.396 89.575 77.705V77.705C88.103 75.705 86.467 73.632 84.666 71.487 82.867 69.351 80.983 67.157 79.014 64.906ZM104.933 60.908L97.659 70.55 82.744 59.298 89.615 50.191 91.4 51.538 86.106 58.555 90.54 61.9 95.251 55.656 96.995 56.972 92.284 63.216 97.451 67.114 103.148 59.562ZM117.222 48.571L115.691 50.13C114.937 49.947 114.087 49.749 113.143 49.534 112.189 49.319 111.188 49.112 110.142 48.913 109.091 48.709 108.015 48.515 106.916 48.331 105.811 48.142 104.734 47.974 103.683 47.828 102.637 47.678 101.635 47.551 100.677 47.448 99.724 47.34 98.866 47.263 98.102 47.217V47.217L108.515 57.439 106.718 59.271 93.385 46.182 94.844 44.696C96.073 44.719 97.451 44.806 98.978 44.957 100.505 45.108 102.051 45.293 103.618 45.512 105.179 45.726 106.69 45.962 108.15 46.221 109.609 46.479 110.88 46.74 111.961 47.002V47.002L102.092 37.313 103.89 35.482ZM107.401 32.682L118.884 24.033 120.242 25.836 115.542 29.376 125.425 42.497 123.334 44.072 113.451 30.951 108.759 34.485ZM125.856 30.733V30.733C125.06 29.345 124.563 28.002 124.366 26.705 124.169 25.409 124.225 24.201 124.533 23.081 124.836 21.965 125.355 20.959 126.092 20.061 126.828 19.163 127.727 18.411 128.788 17.802V17.802C129.831 17.204 130.92 16.817 132.055 16.642 133.189 16.466 134.312 16.531 135.422 16.837 136.526 17.147 137.591 17.712 138.616 18.534 139.636 19.359 140.544 20.466 141.34 21.854V21.854C142.136 23.243 142.633 24.586 142.83 25.882 143.021 27.182 142.971 28.387 142.681 29.496 142.384 30.608 141.874 31.61 141.149 32.501 140.424 33.391 139.54 34.136 138.497 34.734V34.734C137.437 35.342 136.333 35.738 135.186 35.92 134.039 36.102 132.908 36.042 131.792 35.74 130.67 35.441 129.6 34.879 128.58 34.054 127.561 33.229 126.653 32.122 125.856 30.733ZM128.243 29.364V29.364C128.807 30.348 129.445 31.17 130.157 31.831 130.859 32.49 131.605 32.969 132.394 33.268 133.174 33.565 133.982 33.676 134.818 33.601 135.654 33.525 136.486 33.25 137.315 32.775V32.775C138.143 32.3 138.795 31.724 139.27 31.048 139.752 30.368 140.064 29.614 140.208 28.788 140.342 27.958 140.305 27.073 140.097 26.13 139.886 25.182 139.499 24.217 138.935 23.233V23.233C138.371 22.25 137.733 21.428 137.022 20.767 136.313 20.112 135.567 19.633 134.784 19.33 133.998 19.036 133.19 18.925 132.36 18.997 131.536 19.066 130.71 19.337 129.881 19.812V19.812C129.053 20.287 128.395 20.867 127.908 21.55 127.421 22.233 127.108 22.987 126.971 23.81 126.83 24.643 126.867 25.528 127.081 26.467 127.292 27.415 127.679 28.381 128.243 29.364ZM154.343 18.407V18.407C154.742 18.635 155.254 18.943 155.879 19.333 156.501 19.716 157.159 20.152 157.852 20.641 158.545 21.129 159.247 21.651 159.959 22.206 160.668 22.754 161.305 23.305 161.869 23.859V23.859L159.201 24.904C158.621 24.401 158.007 23.9 157.361 23.4 156.707 22.897 156.063 22.43 155.429 21.999 154.799 21.56 154.185 21.159 153.585 20.796 152.989 20.424 152.456 20.109 151.986 19.851V19.851C151.776 19.955 151.556 20.052 151.326 20.143 151.102 20.23 150.875 20.319 150.645 20.409V20.409L148.457 21.267 151.122 28.069 148.685 29.024 141.967 11.878C142.587 11.443 143.306 11.029 144.125 10.634 144.954 10.243 145.72 9.91 146.423 9.634V9.634C148.867 8.677 150.909 8.408 152.549 8.828 154.189 9.248 155.366 10.369 156.081 12.192V12.192C156.534 13.35 156.614 14.459 156.321 15.518 156.034 16.575 155.375 17.538 154.343 18.407ZM147.453 11.699V11.699C146.417 12.105 145.634 12.441 145.104 12.708V12.708L147.671 19.261 149.398 18.584C150.236 18.256 150.974 17.916 151.61 17.563 152.249 17.217 152.754 16.838 153.124 16.427 153.492 16.01 153.717 15.539 153.799 15.012 153.883 14.492 153.787 13.881 153.511 13.177V13.177C153.256 12.525 152.918 12.03 152.498 11.692 152.078 11.355 151.604 11.143 151.075 11.055 150.548 10.973 149.977 10.994 149.362 11.117 148.748 11.247 148.112 11.441 147.453 11.699ZM170.113 22.058L167.571 22.68 165.788 15.403C164.123 13.831 162.537 12.264 161.029 10.702 159.517 9.148 158.077 7.616 156.71 6.105V6.105L159.693 5.374C160.703 6.64 161.799 7.91 162.981 9.184 164.163 10.458 165.359 11.671 166.568 12.825V12.825C167.087 11.248 167.576 9.622 168.036 7.946 168.495 6.27 168.891 4.635 169.222 3.04V3.04L172.054 2.346C171.54 4.319 170.97 6.34 170.346 8.409 169.728 10.478 169.051 12.581 168.316 14.721V14.721ZM194.163 16.468L192.064 16.578C191.863 16.155 191.597 15.618 191.267 14.968 190.931 14.319 190.574 13.618 190.198 12.868 189.814 12.11 189.409 11.333 188.982 10.537 188.548 9.741 188.144 8.988 187.77 8.279 187.389 7.569 187.036 6.938 186.711 6.384 186.386 5.823 186.123 5.393 185.921 5.094V5.094C185.84 7.224 185.799 9.527 185.798 12.004 185.804 14.48 185.828 16.976 185.87 19.492V19.492L183.307 19.626C183.298 18.003 183.295 16.369 183.299 14.725 183.302 13.08 183.32 11.459 183.354 9.862 183.387 8.264 183.433 6.71 183.492 5.2 183.543 3.684 183.616 2.249 183.71 0.896V0.896L185.995 0.776C186.523 1.54 187.093 2.446 187.705 3.494 188.317 4.542 188.932 5.638 189.549 6.782 190.167 7.933 190.767 9.082 191.35 10.227 191.932 11.373 192.465 12.422 192.949 13.374V13.374C193.33 12.377 193.751 11.278 194.211 10.078 194.664 8.878 195.141 7.673 195.642 6.463 196.136 5.261 196.633 4.107 197.132 3.001 197.631 1.894 198.104 0.934 198.55 0.12V0.12L200.835 0C201.76 5.978 202.541 12.173 203.18 18.586V18.586L200.627 18.72C200.407 16.213 200.167 13.729 199.907 11.266 199.654 8.802 199.373 6.516 199.063 4.406V4.406C198.901 4.724 198.687 5.179 198.422 5.771 198.157 6.356 197.872 7.021 197.567 7.766 197.262 8.511 196.939 9.302 196.597 10.139 196.256 10.975 195.934 11.79 195.632 12.583 195.329 13.37 195.047 14.103 194.787 14.784 194.527 15.465 194.319 16.026 194.163 16.468ZM221.284 20.875L218.45 20.536C218.239 19.694 218.047 18.869 217.874 18.059 217.7 17.256 217.518 16.436 217.328 15.596V15.596L208.917 14.591 206.662 19.127 203.961 18.804C204.912 16.925 205.798 15.187 206.618 13.589 207.445 12 208.245 10.49 209.017 9.061 209.797 7.632 210.562 6.27 211.312 4.976 212.068 3.683 212.847 2.406 213.648 1.145V1.145L216.032 1.43C216.514 2.844 216.966 4.268 217.39 5.703 217.82 7.138 218.242 8.641 218.656 10.213 219.077 11.785 219.502 13.441 219.931 15.181 220.352 16.926 220.803 18.824 221.284 20.875ZM209.921 12.531L216.827 13.357C216.446 11.741 216.06 10.172 215.667 8.652 215.282 7.125 214.866 5.657 214.419 4.247V4.247C213.632 5.509 212.871 6.837 212.137 8.23 211.397 9.615 210.658 11.049 209.921 12.531ZM237.383 25.002L235.265 24.467C235.041 23.723 234.784 22.89 234.493 21.966 234.197 21.034 233.871 20.066 233.515 19.062 233.161 18.051 232.786 17.025 232.39 15.983 231.996 14.934 231.596 13.919 231.192 12.938 230.794 11.959 230.398 11.03 230.004 10.151 229.616 9.274 229.249 8.494 228.904 7.812V7.812L225.333 21.96 222.845 21.332 227.418 3.217 229.436 3.726C230.037 4.799 230.657 6.033 231.297 7.427 231.937 8.822 232.558 10.25 233.159 11.713 233.762 13.169 234.321 14.592 234.834 15.983 235.347 17.374 235.764 18.602 236.083 19.668V19.668L239.468 6.259 241.956 6.887ZM254.67 32.552L252.049 31.419C252.087 30.552 252.139 29.706 252.204 28.881 252.266 28.062 252.326 27.223 252.382 26.364V26.364L244.607 23.002 241.153 26.707 238.656 25.627C240.103 24.098 241.448 22.684 242.69 21.387 243.935 20.1 245.132 18.881 246.281 17.731 247.435 16.583 248.557 15.496 249.644 14.47 250.738 13.446 251.849 12.444 252.976 11.464V11.464L255.18 12.417C255.238 13.909 255.266 15.403 255.263 16.899 255.266 18.397 255.242 19.959 255.191 21.583 255.146 23.211 255.081 24.919 254.996 26.709 254.901 28.502 254.793 30.449 254.67 32.552ZM246.157 21.315L252.541 24.075C252.637 22.418 252.713 20.804 252.771 19.235 252.837 17.662 252.857 16.136 252.83 14.657V14.657C251.716 15.642 250.608 16.698 249.508 17.824 248.403 18.94 247.286 20.104 246.157 21.315ZM266.584 37.06L270.109 31.064 272.365 32.39 267.937 39.924C267.713 39.872 267.403 39.781 267.008 39.653 266.62 39.528 266.172 39.368 265.664 39.174 265.163 38.983 264.627 38.755 264.057 38.492 263.477 38.231 262.909 37.937 262.352 37.609V37.609C261.221 36.944 260.3 36.152 259.59 35.232 258.879 34.313 258.398 33.301 258.147 32.197 257.905 31.09 257.905 29.911 258.147 28.658 258.395 27.409 258.915 26.11 259.709 24.759V24.759C260.503 23.409 261.411 22.333 262.432 21.531 263.457 20.722 264.528 20.168 265.644 19.869 266.764 19.563 267.9 19.501 269.052 19.684 270.213 19.864 271.326 20.268 272.393 20.895V20.895C273.121 21.323 273.744 21.749 274.26 22.172 274.767 22.597 275.185 22.99 275.515 23.352 275.844 23.713 276.1 24.03 276.282 24.304 276.469 24.582 276.59 24.776 276.644 24.888V24.888L274.817 26.348C274.538 25.793 274.085 25.201 273.46 24.57 272.828 23.936 272.125 23.391 271.349 22.935V22.935C270.531 22.454 269.698 22.164 268.849 22.063 268 21.962 267.174 22.051 266.373 22.329 265.572 22.608 264.806 23.07 264.076 23.716 263.339 24.359 262.68 25.175 262.099 26.164V26.164C261.535 27.124 261.132 28.066 260.891 28.992 260.653 29.912 260.595 30.791 260.717 31.627 260.848 32.462 261.158 33.229 261.646 33.931 262.137 34.642 262.841 35.267 263.759 35.806V35.806C264.41 36.189 264.985 36.479 265.483 36.676 265.981 36.873 266.348 37.001 266.584 37.06ZM279.728 49.732L270.19 42.323 281.652 27.568 290.661 34.567 289.289 36.333 282.347 30.94 278.94 35.326 285.117 40.125 283.776 41.85 277.599 37.052 273.629 42.163 281.1 47.966ZM290.326 57.284L288.876 55.762C289.066 55.334 289.3 54.783 289.579 54.11 289.852 53.431 290.152 52.704 290.476 51.93 290.801 51.146 291.127 50.332 291.453 49.49 291.775 48.642 292.083 47.845 292.378 47.099 292.668 46.348 292.918 45.669 293.127 45.062 293.341 44.45 293.495 43.97 293.591 43.622V43.622C291.922 44.948 290.147 46.416 288.267 48.028 286.391 49.645 284.512 51.289 282.631 52.959V52.959L280.86 51.102C282.086 50.038 283.324 48.972 284.574 47.903 285.824 46.835 287.067 45.793 288.301 44.778 289.535 43.763 290.744 42.786 291.928 41.848 293.112 40.899 294.249 40.02 295.337 39.21V39.21L296.915 40.866C296.68 41.765 296.364 42.787 295.967 43.934 295.57 45.081 295.139 46.261 294.672 47.475 294.201 48.693 293.72 49.896 293.23 51.085 292.74 52.273 292.291 53.361 291.884 54.347V54.347C292.888 53.987 293.996 53.591 295.207 53.159 296.413 52.721 297.638 52.298 298.882 51.891 300.116 51.483 301.315 51.109 302.48 50.767 303.645 50.426 304.681 50.159 305.59 49.967V49.967L307.168 51.623C303.234 56.218 299.041 60.846 294.59 65.506V65.506L292.827 63.656C294.585 61.856 296.315 60.056 298.015 58.255 299.72 56.459 301.272 54.757 302.671 53.148V53.148C302.324 53.232 301.84 53.366 301.218 53.55 300.601 53.73 299.911 53.947 299.147 54.201 298.383 54.454 297.572 54.724 296.715 55.01 295.858 55.295 295.03 55.581 294.231 55.868 293.437 56.151 292.697 56.415 292.01 56.661 291.324 56.907 290.763 57.114 290.326 57.284ZM303.149 77.974L296.224 68.079 311.53 57.366 318.072 66.712 316.24 67.994 311.199 60.793 306.649 63.977 311.133 70.386 309.344 71.638 304.859 65.23 299.557 68.941 304.981 76.692ZM311.094 93.47L310.084 91.534C310.49 90.872 310.941 90.125 311.437 89.293 311.935 88.452 312.441 87.564 312.953 86.63 313.472 85.693 313.988 84.73 314.503 83.741 315.023 82.749 315.515 81.775 315.978 80.821 316.444 79.872 316.873 78.958 317.267 78.079 317.663 77.205 318.001 76.413 318.281 75.701V75.701L305.344 82.452 304.157 80.177 320.721 71.534 321.684 73.379C321.283 74.541 320.775 75.825 320.161 77.231 319.546 78.637 318.893 80.051 318.201 81.473 317.516 82.893 316.825 84.257 316.129 85.566 315.433 86.874 314.793 88.003 314.21 88.95V88.95L326.471 82.552 327.658 84.826ZM329.237 89.027L333.926 102.616 331.793 103.352 329.874 97.79 314.346 103.148 313.492 100.673 329.02 95.316 327.104 89.763ZM66.09 180.14L84.112 175.215 84.802 177.74 66.78 182.665ZM74.009 201.693L73.219 199.656C73.696 199.044 74.226 198.351 74.811 197.579 75.399 196.798 76 195.971 76.612 195.1 77.231 194.226 77.85 193.326 78.471 192.399 79.098 191.47 79.694 190.557 80.259 189.66 80.827 188.768 81.355 187.908 81.843 187.077 82.334 186.253 82.757 185.502 83.113 184.826V184.826L69.511 190.108 68.582 187.716 85.998 180.953 86.752 182.893C86.225 184.004 85.579 185.225 84.813 186.554 84.046 187.883 83.241 189.217 82.397 190.554 81.559 191.889 80.722 193.168 79.886 194.392 79.049 195.616 78.289 196.667 77.605 197.544V197.544L90.497 192.538 91.426 194.93ZM99.159 207.882L100.575 210.301C98.53 210.71 96.625 211.073 94.86 211.39 93.092 211.701 91.406 211.984 89.803 212.237 88.206 212.488 86.664 212.71 85.178 212.904 83.697 213.094 82.221 213.266 80.75 213.418V213.418L79.511 211.302C80.364 210.094 81.236 208.891 82.126 207.692 83.019 206.485 83.964 205.243 84.961 203.967 85.959 202.682 87.027 201.344 88.164 199.954 89.297 198.558 90.546 197.074 91.91 195.503V195.503L93.369 197.993C91.409 200.262 89.535 202.466 87.746 204.605 85.954 206.737 84.314 208.812 82.828 210.828V210.828C85.293 210.524 87.901 210.111 90.653 209.59 93.396 209.067 96.231 208.497 99.159 207.882ZM93.739 232.12L86.465 222.478 101.38 211.226 108.251 220.333 106.466 221.68 101.172 214.662 96.737 218.007 101.448 224.251 99.704 225.567 94.993 219.323 89.827 223.221 95.524 230.773ZM107.216 245.836L105.685 244.277C105.882 243.526 106.096 242.68 106.328 241.739 106.56 240.789 106.786 239.793 107.004 238.751 107.228 237.703 107.441 236.632 107.646 235.536 107.855 234.435 108.042 233.36 108.208 232.312 108.377 231.27 108.523 230.27 108.643 229.314 108.769 228.363 108.861 227.507 108.922 226.744V226.744L98.509 236.967 96.711 235.136 110.044 222.047 111.502 223.533C111.457 224.761 111.344 226.138 111.165 227.661 110.986 229.185 110.773 230.728 110.525 232.29 110.282 233.847 110.018 235.353 109.733 236.808 109.447 238.263 109.164 239.528 108.882 240.604V240.604L118.75 230.916 120.548 232.747ZM121.447 233.254L132.929 241.904 131.571 243.706 126.871 240.166 116.988 253.287 114.897 251.712 124.781 238.591 120.089 235.057ZM128.19 249.78V249.78C128.987 248.391 129.895 247.284 130.914 246.459 131.934 245.634 133.004 245.072 134.126 244.773 135.242 244.47 136.373 244.41 137.52 244.593 138.667 244.775 139.771 245.171 140.831 245.779V245.779C141.874 246.377 142.758 247.121 143.483 248.012 144.208 248.903 144.718 249.904 145.015 251.017 145.305 252.126 145.355 253.331 145.164 254.631 144.967 255.927 144.47 257.27 143.674 258.659V258.659C142.878 260.047 141.97 261.154 140.95 261.979 139.925 262.801 138.86 263.366 137.756 263.676 136.646 263.981 135.523 264.047 134.389 263.871 133.254 263.696 132.165 263.309 131.122 262.711V262.711C130.061 262.102 129.163 261.349 128.426 260.452 127.689 259.554 127.17 258.548 126.867 257.432 126.559 256.312 126.503 255.104 126.7 253.808 126.897 252.511 127.394 251.168 128.19 249.78ZM130.577 251.148V251.148C130.013 252.132 129.626 253.098 129.415 254.046 129.201 254.984 129.164 255.87 129.305 256.703 129.442 257.526 129.755 258.28 130.242 258.963 130.729 259.646 131.387 260.225 132.215 260.7V260.7C133.044 261.175 133.87 261.447 134.694 261.516 135.524 261.588 136.332 261.477 137.118 261.183 137.902 260.88 138.647 260.401 139.356 259.746 140.067 259.085 140.705 258.263 141.269 257.28V257.28C141.833 256.296 142.22 255.33 142.432 254.382 142.639 253.44 142.676 252.554 142.542 251.725 142.398 250.898 142.086 250.145 141.604 249.465 141.129 248.789 140.477 248.213 139.649 247.738V247.738C138.82 247.263 137.988 246.988 137.152 246.912 136.317 246.837 135.509 246.948 134.728 247.245 133.939 247.544 133.193 248.023 132.491 248.682 131.779 249.343 131.141 250.165 130.577 251.148ZM154.934 264.667V264.667C155.072 265.104 155.238 265.679 155.432 266.389 155.629 267.093 155.815 267.86 155.992 268.689 156.169 269.518 156.33 270.379 156.476 271.269 156.623 272.154 156.716 272.99 156.754 273.78V273.78L154.086 272.735C154.002 271.971 153.892 271.187 153.758 270.381 153.619 269.567 153.464 268.787 153.291 268.041 153.128 267.29 152.949 266.578 152.756 265.905 152.571 265.227 152.394 264.634 152.224 264.125V264.125C151.999 264.059 151.772 263.981 151.541 263.891 151.317 263.803 151.09 263.714 150.86 263.624V263.624L148.672 262.767 146.007 269.57 143.57 268.615 150.288 251.468C151.037 251.57 151.847 251.755 152.716 252.021 153.589 252.297 154.378 252.573 155.082 252.848V252.848C157.525 253.806 159.206 254.996 160.125 256.418 161.043 257.84 161.145 259.463 160.431 261.286V261.286C159.977 262.444 159.283 263.312 158.348 263.89 157.42 264.471 156.282 264.73 154.934 264.667ZM154.435 255.063V255.063C153.399 254.657 152.596 254.372 152.025 254.208V254.208L149.458 260.761 151.185 261.438C152.023 261.766 152.795 262.017 153.502 262.191 154.206 262.371 154.834 262.436 155.385 262.386 155.938 262.33 156.423 262.136 156.841 261.805 157.256 261.481 157.601 260.967 157.877 260.263V260.263C158.132 259.611 158.22 259.018 158.141 258.485 158.062 257.953 157.859 257.475 157.53 257.051 157.199 256.633 156.766 256.261 156.231 255.933 155.693 255.611 155.094 255.321 154.435 255.063ZM166.777 276.145L164.235 275.522 166.017 268.246C165.267 266.081 164.584 263.959 163.97 261.877 163.347 259.8 162.778 257.776 162.264 255.804V255.804L165.246 256.535C165.557 258.124 165.942 259.757 166.402 261.433 166.862 263.109 167.361 264.738 167.9 266.32V266.32C169.089 265.161 170.275 263.945 171.457 262.671 172.639 261.397 173.745 260.13 174.775 258.869V258.869L177.608 259.562C176.24 261.074 174.801 262.603 173.291 264.149 171.787 265.698 170.215 267.251 168.574 268.808V268.808ZM193.701 276.952L191.601 276.842C191.446 276.401 191.238 275.84 190.977 275.159 190.71 274.477 190.429 273.744 190.133 272.958 189.83 272.164 189.508 271.35 189.167 270.513 188.819 269.676 188.495 268.885 188.197 268.14 187.892 267.395 187.607 266.73 187.342 266.145 187.077 265.554 186.86 265.099 186.691 264.78V264.78C186.388 266.89 186.107 269.177 185.847 271.64 185.594 274.103 185.358 276.588 185.137 279.094V279.094L182.575 278.96C182.735 277.345 182.902 275.72 183.077 274.085 183.252 272.45 183.44 270.839 183.64 269.254 183.84 267.668 184.047 266.128 184.263 264.632 184.473 263.13 184.695 261.711 184.93 260.374V260.374L187.214 260.494C187.66 261.308 188.133 262.269 188.632 263.375 189.132 264.481 189.628 265.636 190.123 266.838 190.617 268.047 191.094 269.252 191.554 270.452 192.014 271.653 192.434 272.751 192.816 273.748V273.748C193.299 272.797 193.832 271.748 194.415 270.602 194.991 269.456 195.591 268.307 196.215 267.157 196.832 266.012 197.447 264.916 198.059 263.868 198.671 262.82 199.241 261.914 199.77 261.151V261.151L202.054 261.271C202.35 267.312 202.481 273.556 202.447 280V280L199.895 279.866C199.937 277.351 199.957 274.855 199.956 272.378 199.962 269.901 199.921 267.598 199.833 265.468V265.468C199.638 265.767 199.378 266.197 199.053 266.758 198.728 267.312 198.375 267.944 197.994 268.653 197.613 269.362 197.209 270.115 196.782 270.912 196.355 271.708 195.95 272.485 195.567 273.242 195.183 273.992 194.827 274.693 194.497 275.343 194.167 275.993 193.902 276.529 193.701 276.952ZM222.949 277.632L220.114 277.971C219.711 277.202 219.33 276.445 218.971 275.699 218.613 274.96 218.242 274.205 217.86 273.435V273.435L209.449 274.44 208.327 279.38 205.625 279.703C206.107 277.652 206.558 275.755 206.979 274.009 207.407 272.27 207.829 270.614 208.243 269.042 208.664 267.47 209.086 265.966 209.509 264.532 209.94 263.097 210.396 261.672 210.877 260.258V260.258L213.261 259.973C214.062 261.234 214.838 262.511 215.588 263.805 216.344 265.099 217.109 266.46 217.882 267.89 218.661 269.319 219.465 270.828 220.291 272.418 221.112 274.015 221.998 275.753 222.949 277.632ZM209.939 272.202L216.845 271.376C216.094 269.896 215.349 268.463 214.609 267.077 213.875 265.684 213.124 264.356 212.357 263.091V263.091C211.89 264.503 211.463 265.973 211.078 267.499 210.686 269.02 210.306 270.588 209.939 272.202ZM240.815 273.177L238.697 273.712C238.147 273.163 237.525 272.551 236.83 271.877 236.127 271.197 235.381 270.499 234.591 269.785 233.8 269.063 232.982 268.338 232.139 267.608 231.294 266.872 230.461 266.168 229.64 265.497 228.825 264.824 228.036 264.194 227.271 263.608 226.513 263.02 225.821 262.507 225.193 262.071V262.071L228.765 276.219 226.277 276.847 221.704 258.732 223.722 258.222C224.76 258.881 225.892 259.673 227.117 260.597 228.342 261.52 229.566 262.483 230.79 263.485 232.012 264.48 233.179 265.468 234.291 266.449 235.403 267.429 236.352 268.313 237.139 269.099V269.099L233.754 255.69 236.242 255.062ZM260.235 264.902L257.615 266.035C257.009 265.414 256.428 264.797 255.871 264.184 255.317 263.578 254.747 262.96 254.16 262.33V262.33L246.385 265.692 246.718 270.747 244.221 271.826C244.098 269.724 243.989 267.776 243.895 265.983 243.81 264.194 243.742 262.487 243.69 260.862 243.645 259.235 243.621 257.673 243.618 256.178 243.622 254.679 243.652 253.184 243.711 251.692V251.692L245.915 250.739C247.042 251.718 248.149 252.722 249.237 253.748 250.331 254.772 251.452 255.859 252.601 257.009 253.755 258.157 254.956 259.374 256.201 260.662 257.443 261.959 258.787 263.372 260.235 264.902ZM246.217 263.407L252.602 260.647C251.459 259.442 250.336 258.281 249.232 257.164 248.131 256.038 247.033 254.978 245.937 253.985V253.985C245.892 255.472 245.902 257.002 245.968 258.575 246.026 260.144 246.109 261.755 246.217 263.407ZM271.423 255.755L267.898 249.759 270.155 248.432 274.583 255.966C274.429 256.137 274.199 256.363 273.895 256.646 273.597 256.924 273.239 257.238 272.822 257.587 272.412 257.932 271.952 258.289 271.445 258.66 270.935 259.039 270.401 259.392 269.845 259.72V259.72C268.713 260.385 267.573 260.804 266.424 260.977 265.275 261.151 264.157 261.079 263.07 260.761 261.985 260.435 260.954 259.861 259.978 259.04 259.007 258.216 258.125 257.129 257.332 255.779V255.779C256.538 254.428 256.039 253.112 255.835 251.829 255.627 250.541 255.664 249.336 255.945 248.214 256.223 247.087 256.722 246.064 257.441 245.147 258.164 244.22 259.058 243.444 260.124 242.817V242.817C260.853 242.389 261.527 242.052 262.148 241.807 262.767 241.571 263.314 241.396 263.789 241.284 264.265 241.172 264.667 241.103 264.995 241.078 265.329 241.049 265.557 241.038 265.681 241.045V241.045L266.068 243.351C265.448 243.326 264.71 243.433 263.855 243.672 262.993 243.916 262.175 244.265 261.399 244.721V244.721C260.582 245.202 259.922 245.789 259.421 246.482 258.92 247.175 258.596 247.939 258.45 248.774 258.303 249.609 258.335 250.503 258.544 251.456 258.748 252.412 259.14 253.385 259.721 254.374V254.374C260.285 255.333 260.913 256.144 261.605 256.805 262.293 257.461 263.032 257.939 263.822 258.239 264.615 258.53 265.436 258.633 266.287 258.548 267.146 258.465 268.035 258.153 268.953 257.614V257.614C269.605 257.231 270.138 256.87 270.552 256.531 270.966 256.191 271.257 255.933 271.423 255.755ZM288.331 245.925L278.793 253.334 267.331 238.579 276.34 231.581 277.712 233.347 270.77 238.74 274.177 243.126 280.354 238.328 281.695 240.053 275.518 244.851 279.488 249.962 286.959 244.159ZM296.732 233.405L295.281 234.927C294.845 234.757 294.283 234.55 293.597 234.304 292.906 234.063 292.166 233.799 291.377 233.511 290.578 233.224 289.75 232.938 288.893 232.653 288.031 232.372 287.22 232.102 286.461 231.843 285.696 231.59 285.006 231.373 284.389 231.193 283.768 231.009 283.281 230.877 282.929 230.798V230.798C284.333 232.402 285.885 234.105 287.586 235.906 289.291 237.702 291.022 239.499 292.781 241.299V241.299L291.01 243.156C289.889 241.983 288.765 240.797 287.638 239.6 286.511 238.402 285.411 237.211 284.338 236.027 283.265 234.843 282.231 233.682 281.237 232.544 280.233 231.407 279.3 230.314 278.439 229.266V229.266L280.018 227.61C280.926 227.802 281.963 228.069 283.127 228.41 284.292 228.751 285.492 229.126 286.726 229.534 287.965 229.946 289.19 230.369 290.401 230.801 291.611 231.234 292.719 231.63 293.724 231.99V231.99C293.316 231.004 292.867 229.916 292.377 228.728 291.883 227.544 291.402 226.341 290.935 225.118 290.469 223.904 290.037 222.724 289.64 221.577 289.243 220.43 288.927 219.408 288.692 218.509V218.509L290.27 216.853C295.049 220.563 299.872 224.529 304.74 228.752V228.752L302.977 230.602C301.095 228.932 299.214 227.291 297.334 225.679 295.458 224.062 293.683 222.593 292.009 221.273V221.273C292.11 221.615 292.267 222.092 292.481 222.704 292.69 223.312 292.939 223.991 293.229 224.742 293.52 225.493 293.828 226.29 294.154 227.132 294.48 227.975 294.806 228.788 295.131 229.573 295.451 230.352 295.75 231.079 296.029 231.753 296.307 232.426 296.542 232.977 296.732 233.405ZM314.637 214.65L307.712 224.545 292.405 213.832 298.946 204.485 300.778 205.768 295.738 212.969 300.289 216.154 304.774 209.746 306.563 210.999 302.078 217.407 307.381 221.118 312.805 213.367ZM323.526 197.6L322.515 199.537C321.74 199.582 320.869 199.639 319.903 199.708 318.928 199.781 317.911 199.874 316.852 199.987 315.786 200.098 314.701 200.225 313.595 200.369 312.484 200.509 311.404 200.663 310.356 200.829 309.312 200.989 308.316 201.159 307.37 201.339 306.426 201.514 305.583 201.689 304.839 201.867V201.867L317.776 208.618 316.589 210.893 300.025 202.249 300.988 200.404C302.171 200.068 303.515 199.75 305.019 199.45 306.524 199.151 308.058 198.878 309.62 198.631 311.176 198.382 312.69 198.168 314.162 197.991 315.634 197.814 316.925 197.693 318.035 197.629V197.629L305.775 191.231 306.962 188.956ZM307.17 187.942L311.859 174.352 313.992 175.089 312.073 180.651 327.601 186.009 326.747 188.483 311.219 183.125 309.303 188.678ZM65.802 142.292C65.802 141.081 66.783 140.1 67.994 140.1 69.204 140.1 70.185 141.081 70.185 142.292 70.185 143.502 69.204 144.483 67.994 144.483 66.783 144.483 65.802 143.502 65.802 142.292ZM325.499 142.292C325.499 141.081 326.48 140.1 327.691 140.1 328.901 140.1 329.882 141.081 329.882 142.292 329.882 143.502 328.901 144.483 327.691 144.483 326.48 144.483 325.499 143.502 325.499 142.292Z" fill="#000000" data-fill-palette-color="primary"></path></svg></g></svg></g></svg></g></svg></g><defs></defs></svg><rect width="395.52" height="280" fill="none" stroke="none" visibility="hidden"></rect></g></svg></g></svg>