<svg xmlns="http://www.w3.org/2000/svg" version="1.1" xmlns:xlink="http://www.w3.org/1999/xlink" xmlns:svgjs="http://svgjs.dev/svgjs" width="1000" height="1000" viewBox="0 0 1000 1000"><rect width="1000" height="1000" fill="#ffffff"></rect><g transform="matrix(0.7,0,0,0.7,150,150)"><svg viewBox="0 0 280 280" data-background-color="#ffffff" preserveAspectRatio="xMidYMid meet" height="1000" width="1000" xmlns="http://www.w3.org/2000/svg" xmlns:xlink="http://www.w3.org/1999/xlink"><defs></defs><g id="tight-bounds" transform="matrix(1,0,0,1,0,0)"><svg viewBox="0 0 280 280" height="280" width="280"><g><svg viewBox="0 0 280 280" height="280" width="280"><g><svg viewBox="0 0 280 280" height="280" width="280"><g><svg viewBox="0 0 280 280" height="280" width="280"><g><svg viewBox="0 0 280 280" height="280" width="280"><g transform="matrix(1,0,0,1,79.40951281125099,74.00336708925556)"><svg viewBox="0 0 121.18097437749802 131.99326582148888" height="131.99326582148888" width="121.18097437749802"><g><svg xmlns="http://www.w3.org/2000/svg" xmlns:xlink="http://www.w3.org/1999/xlink" xml:space="preserve" version="1.1" style="shape-rendering:geometricPrecision;text-rendering:geometricPrecision;image-rendering:optimizeQuality;" viewBox="29 16.374088287353516 276 300.62591552734375" x="0" y="0" fill-rule="evenodd" clip-rule="evenodd" height="131.99326582148888" width="121.18097437749802" class="icon-o-0" data-fill-palette-color="accent" id="o-0"><g fill="#001f3f" data-fill-palette-color="accent"><path class="" d="M232 79c34 22 55 60 55 100 0 66-54 120-120 120-66 0-120-54-120-120 0-41 20-78 54-100l0 0c0-2 0-4 0-6-37 22-59 62-59 106 0 69 56 125 125 125 69 0 124-56 124-125 0-44-22-84-59-106 0 2 0 4 0 6z m-2 14c-2 8-6 15-10 24 19 15 29 38 29 62 0 45-37 82-82 82-46 0-83-37-83-82 0-24 11-47 29-62-4-9-7-17-10-24-27 20-43 52-43 86 0 59 48 106 107 106 58 0 106-47 106-106 0-34-16-66-43-86z m-3-38c48 23 78 71 78 124 0 76-62 138-138 138-77 0-138-62-138-138 0-53 30-101 77-124 22-51 99-52 121 0z m-16 79c12 12 19 28 19 45 0 35-28 63-63 63-35 0-64-28-64-63 0-17 7-33 20-45l-3-5c-14 13-22 31-22 50 0 38 31 69 69 69 38 0 69-31 69-69 0-19-8-37-22-50l-3 5z m-7 11c-12 18-24 34-32 43-3 4-8 3-10 0-8-9-21-25-32-43-9 9-13 21-13 34 0 28 22 50 50 50 27 0 50-22 50-50 0-13-5-25-13-34z m-74-26c11 21 26 42 37 55 10-13 25-34 37-55 9-15 15-30 15-40 0-66-105-64-105 0 0 10 7 25 16 40z" fill="#000000" fill-rule="nonzero" data-fill-palette-color="accent"></path></g></svg></g></svg></g><path d="M20.84 101.437v0l1.157 0.918 3.11-8.38-1.476-0.059c-3.413-0.148-6.236-0.283-8.47-0.404-2.232-0.128-3.617-0.217-4.157-0.269v0l-0.81-0.078c1.107 0.736 4.656 3.494 10.646 8.272zM24.936 104.677l5.616 4.462-1.569 4.227-22.775-18.728 1.942-5.235 29.435 0.784-1.582 4.265-7.154-0.319zM43.005 67.578v0c2.062 1.321 3.216 3.093 3.462 5.315 0.247 2.223-0.373 4.493-1.858 6.812v0c-1.65 2.576-3.518 4.39-5.603 5.442v0l-3.721-2.384c2.543-0.956 4.588-2.64 6.134-5.054v0c0.816-1.274 1.166-2.472 1.051-3.594-0.116-1.123-0.697-2.018-1.742-2.688v0c-0.626-0.401-1.34-0.547-2.142-0.439-0.808 0.105-1.509 0.326-2.103 0.662-0.588 0.34-1.445 0.871-2.569 1.593v0c-0.66 0.428-1.128 0.727-1.403 0.898-0.275 0.171-0.74 0.436-1.396 0.796-0.66 0.365-1.179 0.616-1.558 0.752-0.381 0.127-0.882 0.27-1.505 0.43-0.628 0.157-1.183 0.204-1.662 0.141-0.485-0.067-1.025-0.184-1.619-0.352-0.594-0.168-1.181-0.438-1.762-0.81v0c-1.995-1.278-3.108-3.015-3.339-5.212-0.235-2.192 0.385-4.438 1.859-6.741v0c1.353-2.112 2.875-3.67 4.568-4.674v0l3.553 2.276c-1.973 0.927-3.591 2.376-4.855 4.349v0c-0.82 1.279-1.177 2.465-1.073 3.556 0.101 1.097 0.615 1.943 1.543 2.537 0.927 0.594 1.901 0.71 2.922 0.347 1.017-0.357 2.325-1.071 3.926-2.142v0c1.045-0.709 1.893-1.238 2.541-1.587 0.653-0.354 1.477-0.713 2.474-1.075 0.999-0.353 1.984-0.459 2.957-0.316 0.969 0.148 1.942 0.535 2.92 1.162zM59.791 49.875v0c1.76 1.703 2.54 3.668 2.343 5.895-0.198 2.228-1.254 4.331-3.17 6.31v0c-2.127 2.198-4.316 3.607-6.568 4.226v0l-3.176-3.073c2.682-0.434 5.019-1.681 7.013-3.741v0c1.052-1.087 1.632-2.193 1.74-3.315 0.108-1.123-0.284-2.116-1.175-2.98v0c-0.534-0.517-1.205-0.801-2.013-0.853-0.813-0.057-1.544 0.021-2.193 0.233-0.644 0.217-1.588 0.568-2.833 1.053v0c-0.732 0.289-1.25 0.49-1.553 0.603-0.303 0.113-0.812 0.281-1.526 0.504-0.719 0.228-1.277 0.371-1.675 0.428-0.398 0.049-0.918 0.09-1.561 0.125-0.647 0.029-1.2-0.034-1.657-0.191-0.463-0.161-0.968-0.383-1.517-0.665-0.549-0.282-1.071-0.663-1.568-1.143v0c-1.702-1.647-2.45-3.571-2.242-5.77 0.203-2.195 1.255-4.275 3.157-6.239v0c1.744-1.803 3.545-3.029 5.401-3.679v0l3.033 2.935c-2.117 0.518-3.99 1.619-5.619 3.302v0c-1.057 1.092-1.642 2.183-1.755 3.274-0.118 1.095 0.219 2.026 1.01 2.792 0.792 0.766 1.723 1.072 2.796 0.918 1.067-0.149 2.491-0.59 4.272-1.323v0c1.165-0.488 2.1-0.839 2.805-1.053 0.71-0.218 1.589-0.406 2.637-0.564 1.049-0.149 2.036-0.057 2.961 0.275 0.921 0.337 1.798 0.909 2.633 1.716zM81.68 39.341l2.026 2.92-13.214 9.169-15.888-22.896 13.051-9.056 2.025 2.919-9.551 6.628 4.903 7.065 8.463-5.873 2.032 2.927-8.464 5.873 4.903 7.065zM94.209 7.489l1.381 3.274-6.75 2.847 9.447 22.405-3.916 1.651-9.447-22.405-6.714 2.831-1.38-3.274zM136.328 0l0.348 3.536-7.291 0.718 2.382 24.198-4.229 0.417-2.382-24.199-7.251 0.714-0.348-3.536zM154.555 4.667v0l-3.626-0.351-0.982 10.124 3.834 0.372c1.75 0.17 3.122-0.161 4.116-0.991 1-0.83 1.575-2.014 1.724-3.553v0c0.327-3.375-1.362-5.242-5.066-5.601zM149.604 17.977l-1.022 10.541-4.24-0.411 2.69-27.739 7.737 0.75c3.183 0.309 5.565 1.323 7.145 3.043 1.581 1.713 2.242 3.901 1.983 6.562v0c-0.222 1.945-0.878 3.552-1.967 4.819-1.09 1.268-2.515 2.119-4.278 2.555v0l6.157 11.897-5.063-0.491-5.477-11.171zM178.533 22.667v0l-0.891 1.177 8.45 2.914 0.025-1.476c0.069-3.416 0.138-6.241 0.207-8.478 0.075-2.234 0.133-3.622 0.172-4.162v0l0.058-0.812c-0.71 1.124-3.384 4.736-8.021 10.837zM175.389 26.837l-4.33 5.718-4.262-1.469 18.193-23.206 5.278 1.82-0.098 29.445-4.3-1.483 0.152-7.159zM214.764 47.896l-2.295 3.636c-2.05 0.04-4.357-0.75-6.921-2.369v0c-3.518-2.221-5.705-5.133-6.563-8.734-0.854-3.607-0.118-7.251 2.206-10.932v0c2.253-3.568 5.211-5.762 8.874-6.58 3.66-0.813 7.215-0.13 10.666 2.049v0c2.514 1.587 4.257 3.288 5.23 5.103v0l-2.232 3.535c-0.667-1.206-1.346-2.18-2.039-2.923-0.683-0.745-1.667-1.523-2.952-2.335v0c-2.351-1.484-4.819-1.925-7.405-1.321-2.577 0.602-4.698 2.221-6.363 4.858v0c-1.693 2.682-2.26 5.306-1.699 7.873 0.557 2.573 2.118 4.668 4.682 6.288v0c2.261 1.428 4.532 2.045 6.811 1.852zM232.737 54.058l-2.148 17.428-3.791-3.81 2.316-17.188 17.144-2.766 3.644 3.662zM238.732 40.159l-19.755 19.657-3.004-3.019 19.755-19.658zM245.122 87.582l-2.979 1.937-8.769-13.485 23.364-15.192 8.66 13.317-2.979 1.937-6.337-9.746-7.21 4.688 5.616 8.637-2.987 1.942-5.616-8.636-7.209 4.688zM270.061 94.14v0l-1.304-3.401-9.498 3.641 1.379 3.597c0.629 1.642 1.537 2.722 2.724 3.24 1.189 0.525 2.505 0.511 3.949-0.042v0c3.166-1.214 4.083-3.558 2.75-7.035zM255.941 95.652l-9.889 3.791-1.524-3.978 26.022-9.976 2.782 7.258c1.145 2.986 1.3 5.57 0.467 7.752-0.828 2.179-2.49 3.747-4.987 4.705v0c-1.84 0.67-3.57 0.8-5.19 0.391-1.621-0.409-3.019-1.305-4.196-2.688v0l-7.898 10.82-1.82-4.749 7.551-9.888zM23.32 184.832v0l-1.497 0.058 3.163 8.487 1.17-0.935c2.713-2.144 4.97-3.909 6.769-5.295 1.793-1.383 2.914-2.233 3.363-2.548v0l0.673-0.474c-1.338 0.173-5.885 0.408-13.641 0.706zM18.04 185.057l-7.274 0.289-1.595-4.281 29.869-0.71 1.974 5.297-23.092 18.898-1.609-4.319 5.703-4.504zM38.274 222.869v0c-2.088 1.341-4.207 1.658-6.358 0.949-2.149-0.717-3.978-2.251-5.488-4.601v0c-1.675-2.607-2.558-5.092-2.648-7.455v0l3.768-2.421c-0.194 2.743 0.495 5.337 2.066 7.782v0c0.832 1.295 1.787 2.125 2.865 2.489 1.082 0.37 2.153 0.214 3.213-0.467v0c0.631-0.405 1.068-1.002 1.312-1.789 0.243-0.787 0.334-1.524 0.272-2.21-0.06-0.695-0.187-1.709-0.382-3.044v0c-0.115-0.793-0.193-1.351-0.234-1.671-0.041-0.321-0.088-0.862-0.144-1.623-0.055-0.761-0.063-1.344-0.023-1.748 0.036-0.41 0.114-0.933 0.234-1.57 0.116-0.642 0.306-1.175 0.571-1.597 0.263-0.413 0.595-0.86 0.997-1.339 0.411-0.477 0.91-0.904 1.496-1.28v0c2.021-1.298 4.092-1.592 6.214-0.881 2.116 0.715 3.921 2.237 5.416 4.565v0c1.374 2.138 2.166 4.2 2.378 6.186v0l-3.593 2.308c-0.023-2.209-0.675-4.31-1.955-6.303v0c-0.832-1.295-1.772-2.126-2.821-2.494-1.052-0.373-2.05-0.257-2.993 0.349-0.938 0.603-1.456 1.448-1.554 2.536-0.094 1.094 0.012 2.603 0.319 4.528v0c0.211 1.261 0.34 2.266 0.387 3.016 0.054 0.746 0.034 1.654-0.059 2.724-0.09 1.075-0.408 2.029-0.955 2.86-0.546 0.832-1.313 1.565-2.301 2.201zM55.8 241.418v0c-1.782 1.727-3.797 2.456-6.045 2.187-2.248-0.279-4.344-1.421-6.289-3.427v0c-2.157-2.225-3.513-4.486-4.069-6.785v0l3.215-3.117c0.352 2.727 1.539 5.134 3.563 7.22v0c1.072 1.105 2.172 1.73 3.3 1.874 1.133 0.149 2.153-0.215 3.058-1.093v0c0.538-0.522 0.849-1.193 0.932-2.012 0.083-0.82 0.026-1.56-0.17-2.22-0.196-0.669-0.521-1.639-0.975-2.908v0c-0.27-0.755-0.456-1.286-0.56-1.593-0.103-0.307-0.257-0.828-0.461-1.562-0.204-0.735-0.327-1.305-0.368-1.709-0.045-0.409-0.072-0.937-0.081-1.585-0.013-0.652 0.068-1.212 0.244-1.679 0.176-0.457 0.414-0.96 0.713-1.509 0.309-0.549 0.713-1.066 1.214-1.551v0c1.725-1.672 3.697-2.369 5.917-2.09 2.215 0.283 4.286 1.418 6.211 3.404v0c1.769 1.825 2.953 3.689 3.553 5.594v0l-3.066 2.973c-0.459-2.161-1.513-4.092-3.162-5.793v0c-1.072-1.105-2.158-1.734-3.258-1.888-1.105-0.158-2.06 0.153-2.865 0.935-0.8 0.776-1.141 1.707-1.022 2.792 0.124 1.091 0.526 2.549 1.207 4.376v0c0.455 1.194 0.781 2.154 0.976 2.88 0.2 0.721 0.36 1.615 0.479 2.682 0.124 1.072 0.001 2.069-0.37 2.993-0.371 0.923-0.978 1.794-1.821 2.611zM73.913 259.328l-2.053 2.962-13.4-9.285 16.082-23.21 13.229 9.166-2.052 2.961-9.679-6.706-4.966 7.167 8.574 5.941-2.046 2.953-8.574-5.94-4.966 7.166zM107.975 247.41l-1.399 3.32-6.834-2.878-9.56 22.704-3.981-1.677 9.56-22.703-6.788-2.859 1.398-3.32zM139.748 252.263l-0.358 3.586-7.378-0.737-2.446 24.513-4.299-0.429 2.446-24.513-7.329-0.731 0.358-3.585zM151.702 254.718v0l-3.666 0.349 0.978 10.255 3.874-0.369c1.783-0.17 3.09-0.764 3.919-1.784 0.823-1.018 1.16-2.304 1.012-3.855v0c-0.326-3.422-2.365-4.954-6.117-4.596zM149.356 268.909l1.018 10.681-4.3 0.41-2.68-28.11 7.847-0.748c3.223-0.307 5.785 0.242 7.686 1.647 1.9 1.405 2.979 3.455 3.236 6.15v0c0.162 1.978-0.177 3.7-1.017 5.167-0.847 1.467-2.103 2.59-3.769 3.368v0l8.424 10.645-5.132 0.49-7.608-10.053zM177.489 261.99v0l0.019 1.499 8.567-2.941-0.905-1.195c-2.073-2.768-3.778-5.07-5.116-6.904-1.336-1.828-2.156-2.971-2.461-3.428v0l-0.456-0.685c0.138 1.342 0.255 5.893 0.352 13.654zM177.577 267.274l0.099 7.28-4.321 1.483 0.067-29.877 5.347-1.836 18.291 23.576-4.359 1.496-4.355-5.819zM219.963 247.396l2.323 3.69c-0.854 1.894-2.581 3.66-5.181 5.296v0c-3.566 2.245-7.183 2.97-10.852 2.174-3.669-0.795-6.678-3.06-9.029-6.794v0c-2.277-3.616-2.989-7.276-2.137-10.98 0.852-3.704 3.026-6.657 6.524-8.86v0c2.555-1.609 4.875-2.457 6.96-2.546v0l2.253 3.579c-1.396 0.087-2.583 0.281-3.561 0.584-0.984 0.306-2.124 0.867-3.421 1.683v0c-2.392 1.506-3.876 3.57-4.453 6.191-0.573 2.627-0.02 5.274 1.659 7.941v0c1.711 2.718 3.866 4.384 6.464 4.999 2.595 0.609 5.192 0.095 7.792-1.542v0c2.297-1.446 3.85-3.251 4.659-5.415zM227.929 228.365l17.661 2.11-3.844 3.854-17.422-2.293-2.866-17.352 3.697-3.706zM213.825 222.337l19.992 19.941-3.051 3.059-19.992-19.941zM256.841 207.12l3.018 1.968-8.905 13.656-23.652-15.424 8.791-13.481 3.018 1.968-6.432 9.863 7.304 4.763 5.697-8.738 3.01 1.963-5.698 8.737 7.303 4.763zM244.036 183.096v0l-1.323 3.437 9.613 3.702 1.398-3.632c0.644-1.672 0.695-3.106 0.153-4.304-0.544-1.191-1.544-2.066-2.999-2.626v0c-3.208-1.235-5.489-0.094-6.842 3.423zM255.689 191.529l10.013 3.855-1.552 4.031-26.352-10.145 2.832-7.357c1.163-3.022 2.798-5.07 4.904-6.143 2.106-1.074 4.422-1.124 6.948-0.151v0c1.842 0.738 3.232 1.81 4.169 3.216 0.935 1.412 1.38 3.038 1.333 4.875v0l13.286-2.788-1.853 4.811-12.391 2.322zM3.801 143.526c0-5.957 4.829-10.787 10.787-10.786 5.957 0 10.787 4.829 10.786 10.786 0 5.957-4.829 10.787-10.786 10.787-5.957 0-10.787-4.829-10.787-10.787zM254.626 143.526c0-5.957 4.829-10.787 10.786-10.786 5.957 0 10.787 4.829 10.787 10.786 0 5.957-4.829 10.787-10.787 10.787-5.957 0-10.787-4.829-10.786-10.787z" fill="#000000" data-fill-palette-color="primary"></path></svg></g></svg></g></svg></g></svg></g></svg><rect width="280" height="280" fill="none" stroke="none" visibility="hidden"></rect></g></svg></g></svg>